<svg xmlns="http://www.w3.org/2000/svg" fill="none" viewBox="0 0 136 50" class="header__image header__image--logo"><path fill="currentColor" d="m4.384 6.312 7.537 18.496h.652l6.34-16.61c2.609-6.783 3.37-7.58 5.073-7.725l.399-.037V.001h-7.682v.435l.762.037c1.521.072 1.92 1.124 1.92 2.575 0 1.523-.399 3.336-1.087 5.15l-4.746 12.476L7.79 6.057C6.014 1.597 5.724.544 7.717.472L8.66.435V.001H0v.435l.29.037c1.486.181 1.956.616 4.094 5.839M45.652 18.026c-1.666 5.078-3.695 5.948-7.391 5.948h-2.5c-1.595 0-1.704-.58-1.704-5.476v-6.383h2.066c1.666 0 3.478.217 4.276 3.118l.217.798h.326V7.762h-.326l-.218.798c-.797 2.901-2.608 3.119-4.275 3.119h-2.066v-5.73c0-4.897.11-5.477 1.703-5.477h1.776c3.37 0 5.978.58 7.392 4.86l.398 1.233h.327V.001H27.899v.435l.761.037c1.776.072 2.102.507 2.102 5.476v12.548c0 4.969-.327 5.404-2.102 5.477l-.761.036v.435h18.478v-7.652h-.326zM69.606 20.13c-.362-.617-1.304-2.249-1.92-3.228-1.522-2.358-3.116-3.482-6.559-4.425 1.704.035 3.225-.073 4.892-.69 2.427-.87 4.239-2.938 4.239-5.621C70.258 2.067 66.635 0 62.287 0H50.33v.435l.762.037c1.775.072 2.1.508 2.1 5.476v12.549c0 4.968-.326 5.403-2.1 5.476l-.762.036v.435h9.023v-.435l-.762-.036c-1.775-.073-2.1-.508-2.1-5.476v-6.021h2.21c2.463 0 3.442.725 5.507 4.316.652 1.124 1.74 3.3 2.464 4.642a60 60 0 0 1 1.521 3.01h6.015v-.434l-.652-.036c-1.34-.073-2.464-1.45-3.95-3.844M56.49 12.04V5.948c0-4.896.11-5.476 1.703-5.476h4.095c2.68 0 4.275 2.03 4.275 5.766 0 3.156-.833 5.803-5.036 5.803zM76.568.436l.761.037c1.776.072 2.101.507 2.101 5.476v12.548c0 4.969-.325 5.404-2.101 5.477l-.761.036v.435h9.022v-.435l-.761-.036c-1.776-.073-2.101-.508-2.101-5.477V5.95c0-4.969.326-5.404 2.1-5.476l.762-.037V.001h-9.022zM89.109 7.29h.326l.4-1.233C91.464 1.052 93.456.472 95.27.472h.797c1.594 0 1.703.508 1.703 5.404v12.62c0 4.97-.327 5.404-2.102 5.477l-.76.036v.435h9.021v-.435l-.762-.036c-1.775-.073-2.101-.508-2.101-5.476V5.877c0-4.897.109-5.404 1.703-5.404h.797c1.812 0 3.805.58 5.435 5.585l.399 1.233h.327V.001H89.111v7.29zM127.81 0v.436l.761.037c1.413.072 1.921 1.015 1.921 2.067 0 1.56-1.051 3.59-2.319 5.476l-2.681 4.062-3.587-5.911C119.369 1.96 118.644.58 120.746.473l.761-.037V.001h-8.95v.435l.652.037c1.486.072 2.246 1.233 5.181 5.875l4.058 6.384v5.766c0 4.969-.326 5.404-2.101 5.476l-.761.036v.435h9.021v-.435l-.761-.036c-1.776-.072-2.102-.507-2.102-5.476v-5.876l3.044-4.606c4.13-6.31 4.891-7.47 6.232-7.543l-.161-.037V.001zM24.874 49.998c-3.314-.023-5.508-2.201-5.485-5.862.044-5.345 3.403-10.33 8.798-10.33 1.232 0 2.418.291 3.224.763.493.292.739.629.739 1.123-.023.561-.18 1.257-.85 3.57h-.225c.18-2.762-.671-5.142-2.865-5.187-3.74-.09-6.09 6.872-6.112 11.117 0 2.605.94 4.492 2.91 4.514 2.037.067 3.65-1.662 4.97-4.626h.246c-.447 2.043-.626 2.74-.828 3.256-.29.719-.672.92-1.32 1.145-.986.382-2.016.54-3.202.517M46.38 39.555c.044 5.188-3.605 10.51-8.351 10.443-3.067-.023-5.06-2.29-5.038-5.817.023-5.03 3.538-10.376 8.351-10.376 2.978 0 4.993 2.201 5.038 5.75M35.61 46.09c.023 2.336.896 3.616 2.441 3.66 3.672.113 5.664-8.174 5.642-11.812 0-2.381-.761-3.84-2.328-3.886-3.627-.045-5.799 8.31-5.754 12.038M5.476 50C2.205 50 0 48.763 0 46.023c0-3.079 2.679-4.558 5.097-4.873-1.162-.413-1.873-1.382-1.873-2.62.047-2.327 2.702-4.17 5.334-4.17 1.398 0 2.299.68 2.299 1.6 0 .752-.498 1.262-1.28 1.431-.142-1.285-.853-2.497-1.896-2.497-1.352 0-2.276 1.212-2.276 3.176.024 1.698.853 2.643 2.56 2.764l-.213.291c-3.106.025-4.955 1.94-4.978 4.753-.024 2.255 1.327 3.467 3.39 3.467 3.057 0 4.906-2.182 4.954-4.922.024-1.406-.45-2.352-1.351-2.352-.996 0-1.541.97-1.518 2.207 0 .412.095.921.356 1.26-.19.146-.427.194-.664.194-.663 0-1.138-.509-1.138-1.188 0-1.309 1.067-2.036 2.892-3.249 2.015-1.358 3.84-3.03 3.888-5.358.024-1.577-.782-2.425-1.802-2.74.143-.146.45-.291 1.02-.291 1.304 0 2.607.897 2.584 2.885-.048 2.182-1.968 3.613-3.509 4.583-.782.485-2.038 1.164-2.56 1.527.332-.12.759-.17 1.02-.17 1.754 0 2.63 1.14 2.63 2.474C12.967 47.26 9.08 50 5.477 50"></path></svg>